# xmcd
#
# Track frame offsets:
#	150
#	16048
#	30359
#	45110
#	64234
#	82271
#	98389
#	113900
#	127895
#	145230
#	160283
#
# Disc length: 2340 seconds
#
# Revision: 2
# Processed by: cddbd v1.5.2PL0 Copyright (c) Steve Scherf et al.
# Submitted via: EasyCDDAExtractor 15.3.0.1
#
DISCID=7c09220b
DTITLE=Heli Ruotsalainen - Tuulen suuntaan
DYEAR=2007
DGENRE=Suomi Rautalanka
TTITLE0=Rauhaton
TTITLE1=Kukkamekko
TTITLE2=Tuulen suuntaan
TTITLE3=Kristian
TTITLE4=Mit‰ j‰‰
TTITLE5=Illan varjoon tiemme johtaa
TTITLE6=Onnen pisaroita
TTITLE7=Unelmani
TTITLE8=Milloin syd‰n ymm‰rt‰‰
TTITLE9=Oljenkorsia ruutupaidassa
TTITLE10=Enkelin kasvot
EXTD=
EXTT0=
EXTT1=
EXTT2=
EXTT3=
EXTT4=
EXTT5=
EXTT6=
EXTT7=
EXTT8=
EXTT9=
EXTT10=
PLAYORDER=
